<?xml version="1.0" standalone="no"?>
<!DOCTYPE svg PUBLIC "-//W3C//DTD SVG 20010904//EN"
 "http://www.w3.org/TR/2001/REC-SVG-20010904/DTD/svg10.dtd">
<svg version="1.0" xmlns="http://www.w3.org/2000/svg"
 width="191.000000pt" height="90.000000pt" viewBox="0 0 191.000000 90.000000"
 preserveAspectRatio="xMidYMid meet">

<g transform="translate(0.000000,90.000000) scale(0.100000,-0.100000)"
fill="#000000" stroke="none">
<path d="M90 704 c-76 -55 -89 -84 -50 -119 19 -18 20 -17 20 2 0 11 9 28 20
38 20 18 20 17 20 -190 l0 -207 -25 6 c-35 9 -34 -21 1 -34 17 -7 24 -15 20
-25 -7 -19 3 -19 51 -1 21 8 55 17 76 20 22 3 54 17 73 31 64 49 67 156 4 194
l-29 17 36 19 c20 11 45 33 55 50 23 38 24 112 2 144 -24 34 -91 61 -151 61
-29 0 -53 5 -53 10 0 17 -34 9 -70 -16z m165 -58 c42 -18 69 -58 61 -90 -9
-37 -50 -80 -95 -100 -65 -30 -71 -22 -71 92 0 54 3 102 7 105 11 12 62 8 98
-7z m1 -260 c57 -49 19 -146 -63 -162 l-33 -6 0 96 0 96 34 0 c22 0 45 -9 62
-24z"/>
<path d="M891 689 l-24 -9 6 -137 c4 -75 7 -174 7 -220 0 -82 1 -84 23 -81 20
3 22 8 19 53 -2 47 0 52 29 69 30 18 33 18 44 2 7 -9 15 -38 19 -64 9 -66 29
-92 71 -92 39 0 55 16 26 25 -27 8 -49 46 -57 96 -4 23 -16 51 -26 61 -20 20
-20 20 5 46 14 15 30 39 36 54 19 52 -29 46 -55 -6 -17 -33 -73 -96 -86 -96
-7 0 -5 80 7 248 5 66 2 69 -44 51z"/>
<path d="M1148 619 c-11 -6 -18 -22 -18 -40 0 -28 2 -30 32 -27 25 2 35 9 42
30 5 15 8 29 5 32 -12 11 -46 14 -61 5z m42 -28 c0 -13 -29 -35 -37 -28 -7 8
15 37 28 37 5 0 9 -4 9 -9z"/>
<path d="M447 492 c-50 -55 -61 -158 -24 -213 37 -55 113 -53 147 4 52 84 -4
268 -65 217 -11 -9 -15 -9 -15 -1 0 17 -25 13 -43 -7z m93 -41 c14 -27 12
-111 -3 -140 -35 -68 -87 -39 -87 49 0 57 17 111 29 92 6 -10 11 -10 21 3 17
20 27 19 40 -4z"/>
<path d="M673 482 c-47 -51 -55 -158 -15 -211 26 -35 87 -41 124 -11 36 27 55
108 39 165 -16 62 -32 77 -81 80 -35 2 -48 -2 -67 -23z m97 -31 c5 -11 10 -43
10 -71 0 -94 -49 -142 -86 -85 -13 20 -15 40 -11 86 3 34 10 66 16 72 8 8 11
6 11 -8 0 -18 1 -18 16 3 19 27 30 28 44 3z"/>
<path d="M1152 500 c-22 -9 -23 -13 -20 -132 3 -117 4 -123 24 -126 20 -3 22
3 30 120 4 68 8 127 9 132 0 14 -17 16 -43 6z"/>
</g>
</svg>
